<svg width="486" height="150" viewBox="0 0 486 150" fill="none" xmlns="http://www.w3.org/2000/svg">
<rect x="0.00195312" y="7" width="432.077" height="16" rx="4" fill="#1AA367"/>
<path d="M438.822 10.8125C439.516 10.8125 440.058 11.0599 440.448 11.5547C440.914 12.1406 441.146 13.1123 441.146 14.4697C441.146 15.8239 440.912 16.7972 440.443 17.3896C440.056 17.8779 439.516 18.1221 438.822 18.1221C438.126 18.1221 437.564 17.8551 437.138 17.3213C436.711 16.7842 436.498 15.8288 436.498 14.4551C436.498 13.1074 436.732 12.1374 437.201 11.5449C437.589 11.0566 438.129 10.8125 438.822 10.8125ZM438.822 11.9502C438.656 11.9502 438.508 12.0039 438.378 12.1113C438.248 12.2155 438.147 12.4043 438.075 12.6777C437.981 13.0326 437.934 13.6299 437.934 14.4697C437.934 15.3096 437.976 15.8874 438.061 16.2031C438.145 16.5156 438.251 16.724 438.378 16.8281C438.508 16.9323 438.656 16.9844 438.822 16.9844C438.988 16.9844 439.136 16.9323 439.267 16.8281C439.397 16.7207 439.498 16.5303 439.569 16.2568C439.664 15.9053 439.711 15.3096 439.711 14.4697C439.711 13.6299 439.669 13.0537 439.584 12.7412C439.499 12.4255 439.392 12.2155 439.262 12.1113C439.135 12.0039 438.988 11.9502 438.822 11.9502ZM442.089 16.1592L443.456 16.0176C443.495 16.3268 443.611 16.5726 443.803 16.7549C443.995 16.9339 444.216 17.0234 444.467 17.0234C444.753 17.0234 444.996 16.9079 445.194 16.6768C445.393 16.4424 445.492 16.0908 445.492 15.6221C445.492 15.1826 445.393 14.8538 445.194 14.6357C444.999 14.4144 444.743 14.3037 444.428 14.3037C444.034 14.3037 443.681 14.4779 443.368 14.8262L442.255 14.665L442.958 10.9395H446.586V12.2236H443.998L443.783 13.4395C444.089 13.2865 444.402 13.21 444.721 13.21C445.329 13.21 445.845 13.4313 446.269 13.874C446.692 14.3167 446.903 14.8913 446.903 15.5977C446.903 16.1868 446.732 16.7126 446.391 17.1748C445.925 17.8063 445.279 18.1221 444.452 18.1221C443.791 18.1221 443.253 17.9447 442.836 17.5898C442.419 17.235 442.17 16.7581 442.089 16.1592Z" fill="#252B41" fill-opacity="0.64"/>
<rect x="0.00195312" y="37" width="104.293" height="16" rx="4" fill="#BF30D2"/>
<path d="M111.037 40.8125C111.73 40.8125 112.272 41.0599 112.663 41.5547C113.129 42.1406 113.361 43.1123 113.361 44.4697C113.361 45.8239 113.127 46.7972 112.658 47.3896C112.271 47.8779 111.73 48.1221 111.037 48.1221C110.34 48.1221 109.779 47.8551 109.353 47.3213C108.926 46.7842 108.713 45.8288 108.713 44.4551C108.713 43.1074 108.947 42.1374 109.416 41.5449C109.803 41.0566 110.344 40.8125 111.037 40.8125ZM111.037 41.9502C110.871 41.9502 110.723 42.0039 110.593 42.1113C110.463 42.2155 110.362 42.4043 110.29 42.6777C110.196 43.0326 110.148 43.6299 110.148 44.4697C110.148 45.3096 110.191 45.8874 110.275 46.2031C110.36 46.5156 110.466 46.724 110.593 46.8281C110.723 46.9323 110.871 46.9844 111.037 46.9844C111.203 46.9844 111.351 46.9323 111.481 46.8281C111.612 46.7207 111.713 46.5303 111.784 46.2568C111.879 45.9053 111.926 45.3096 111.926 44.4697C111.926 43.6299 111.883 43.0537 111.799 42.7412C111.714 42.4255 111.607 42.2155 111.477 42.1113C111.35 42.0039 111.203 41.9502 111.037 41.9502ZM116.975 48V46.5596H114.045V45.3584L117.15 40.8125H118.303V45.3535H119.191V46.5596H118.303V48H116.975ZM116.975 45.3535V42.9072L115.329 45.3535H116.975Z" fill="#252B41" fill-opacity="0.64"/>
<rect x="0.00195312" y="67.3335" width="276.699" height="16" rx="4" fill="#F5C630"/>
<path d="M283.443 71.146C284.137 71.146 284.679 71.3934 285.069 71.8882C285.535 72.4741 285.768 73.4458 285.768 74.8032C285.768 76.1574 285.533 77.1307 285.064 77.7231C284.677 78.2114 284.137 78.4556 283.443 78.4556C282.747 78.4556 282.185 78.1886 281.759 77.6548C281.332 77.1177 281.119 76.1623 281.119 74.7886C281.119 73.4409 281.354 72.4709 281.822 71.8784C282.21 71.3901 282.75 71.146 283.443 71.146ZM283.443 72.2837C283.277 72.2837 283.129 72.3374 282.999 72.4448C282.869 72.549 282.768 72.7378 282.696 73.0112C282.602 73.366 282.555 73.9634 282.555 74.8032C282.555 75.6431 282.597 76.2209 282.682 76.5366C282.766 76.8491 282.872 77.0575 282.999 77.1616C283.129 77.2658 283.277 77.3179 283.443 77.3179C283.609 77.3179 283.757 77.2658 283.888 77.1616C284.018 77.0542 284.119 76.8638 284.19 76.5903C284.285 76.2388 284.332 75.6431 284.332 74.8032C284.332 73.9634 284.29 73.3872 284.205 73.0747C284.12 72.759 284.013 72.549 283.883 72.4448C283.756 72.3374 283.609 72.2837 283.443 72.2837ZM286.642 76.4341L287.97 76.2729C288.012 76.6115 288.126 76.8703 288.312 77.0493C288.497 77.2284 288.722 77.3179 288.985 77.3179C289.269 77.3179 289.506 77.2104 289.698 76.9956C289.894 76.7808 289.991 76.491 289.991 76.1265C289.991 75.7814 289.898 75.508 289.713 75.3062C289.527 75.1043 289.301 75.0034 289.034 75.0034C288.858 75.0034 288.648 75.0376 288.404 75.106L288.556 73.9878C288.927 73.9976 289.21 73.9178 289.405 73.7485C289.601 73.576 289.698 73.3481 289.698 73.0649C289.698 72.8241 289.627 72.632 289.483 72.4888C289.34 72.3455 289.15 72.2739 288.912 72.2739C288.678 72.2739 288.478 72.3553 288.312 72.5181C288.146 72.6808 288.045 72.9185 288.009 73.231L286.744 73.0161C286.832 72.5832 286.964 72.2381 287.14 71.981C287.319 71.7205 287.566 71.5171 287.882 71.3706C288.201 71.2209 288.557 71.146 288.951 71.146C289.625 71.146 290.165 71.3608 290.572 71.7905C290.908 72.1421 291.075 72.5392 291.075 72.9819C291.075 73.6102 290.732 74.1115 290.045 74.4858C290.455 74.5737 290.782 74.7707 291.026 75.0767C291.274 75.3826 291.397 75.7521 291.397 76.1851C291.397 76.8133 291.168 77.3488 290.709 77.7915C290.25 78.2342 289.679 78.4556 288.995 78.4556C288.347 78.4556 287.81 78.27 287.384 77.8989C286.957 77.5246 286.71 77.0363 286.642 76.4341Z" fill="#252B41" fill-opacity="0.64"/>
<rect x="0.00195312" y="96.6665" width="35.4725" height="16" rx="4" fill="#1277D9"/>
<path d="M42.2168 100.479C42.9102 100.479 43.4521 100.726 43.8428 101.221C44.3083 101.807 44.541 102.779 44.541 104.136C44.541 105.49 44.3066 106.464 43.8379 107.056C43.4505 107.544 42.9102 107.789 42.2168 107.789C41.5202 107.789 40.9587 107.522 40.5322 106.988C40.1058 106.451 39.8926 105.495 39.8926 104.122C39.8926 102.774 40.127 101.804 40.5957 101.211C40.9831 100.723 41.5234 100.479 42.2168 100.479ZM42.2168 101.617C42.0508 101.617 41.9027 101.67 41.7725 101.778C41.6423 101.882 41.5413 102.071 41.4697 102.344C41.3753 102.699 41.3281 103.296 41.3281 104.136C41.3281 104.976 41.3704 105.554 41.4551 105.87C41.5397 106.182 41.6455 106.39 41.7725 106.495C41.9027 106.599 42.0508 106.651 42.2168 106.651C42.3828 106.651 42.5309 106.599 42.6611 106.495C42.7913 106.387 42.8923 106.197 42.9639 105.923C43.0583 105.572 43.1055 104.976 43.1055 104.136C43.1055 103.296 43.0632 102.72 42.9785 102.408C42.8939 102.092 42.7865 101.882 42.6562 101.778C42.5293 101.67 42.3828 101.617 42.2168 101.617ZM50.0977 106.392V107.667H45.2881C45.3402 107.185 45.4964 106.729 45.7568 106.299C46.0173 105.866 46.5316 105.293 47.2998 104.581C47.9183 104.004 48.2975 103.614 48.4375 103.409C48.6263 103.125 48.7207 102.846 48.7207 102.569C48.7207 102.263 48.6377 102.028 48.4717 101.866C48.3089 101.7 48.0827 101.617 47.793 101.617C47.5065 101.617 47.2786 101.703 47.1094 101.875C46.9401 102.048 46.8424 102.334 46.8164 102.735L45.4492 102.598C45.5306 101.843 45.7861 101.301 46.2158 100.972C46.6455 100.643 47.1826 100.479 47.8271 100.479C48.5335 100.479 49.0885 100.669 49.4922 101.05C49.8958 101.431 50.0977 101.905 50.0977 102.471C50.0977 102.793 50.0391 103.101 49.9219 103.394C49.8079 103.684 49.6257 103.988 49.375 104.307C49.209 104.519 48.9095 104.823 48.4766 105.22C48.0436 105.617 47.7686 105.881 47.6514 106.011C47.5374 106.141 47.4447 106.268 47.373 106.392H50.0977Z" fill="#252B41" fill-opacity="0.64"/>
<rect x="0.00195312" y="127.333" width="20.5732" height="16" rx="4" fill="#FF543E"/>
<path d="M27.3184 131.146C28.0117 131.146 28.5537 131.393 28.9443 131.888C29.4098 132.474 29.6426 133.446 29.6426 134.803C29.6426 136.157 29.4082 137.131 28.9395 137.723C28.5521 138.211 28.0117 138.456 27.3184 138.456C26.6217 138.456 26.0602 138.189 25.6338 137.655C25.2074 137.118 24.9941 136.162 24.9941 134.789C24.9941 133.441 25.2285 132.471 25.6973 131.878C26.0846 131.39 26.625 131.146 27.3184 131.146ZM27.3184 132.284C27.1523 132.284 27.0042 132.337 26.874 132.445C26.7438 132.549 26.6429 132.738 26.5713 133.011C26.4769 133.366 26.4297 133.963 26.4297 134.803C26.4297 135.643 26.472 136.221 26.5566 136.537C26.6413 136.849 26.7471 137.057 26.874 137.162C27.0042 137.266 27.1523 137.318 27.3184 137.318C27.4844 137.318 27.6325 137.266 27.7627 137.162C27.8929 137.054 27.9938 136.864 28.0654 136.59C28.1598 136.239 28.207 135.643 28.207 134.803C28.207 133.963 28.1647 133.387 28.0801 133.075C27.9954 132.759 27.888 132.549 27.7578 132.445C27.6309 132.337 27.4844 132.284 27.3184 132.284ZM34.0762 138.333H32.7041V133.163C32.2028 133.631 31.612 133.978 30.9316 134.203V132.958C31.2897 132.84 31.6787 132.619 32.0986 132.293C32.5186 131.965 32.8066 131.582 32.9629 131.146H34.0762V138.333Z" fill="#252B41" fill-opacity="0.64"/>
</svg>
